<?xml version="1.0" encoding="UTF-8" standalone="no"?>
<svg
   xmlns:dc="http://purl.org/dc/elements/1.1/"
   xmlns:cc="http://creativecommons.org/ns#"
   xmlns:rdf="http://www.w3.org/1999/02/22-rdf-syntax-ns#"
   xmlns:svg="http://www.w3.org/2000/svg"
   xmlns="http://www.w3.org/2000/svg"
   id="svg33"
   version="1.1"
   height="116"
   width="130"
   viewBox="0 0 130.4238 116.37816">
  <metadata
     id="metadata39">
    <rdf:RDF>
      <cc:Work
         rdf:about="">
        <dc:format>image/svg+xml</dc:format>
        <dc:type
           rdf:resource="http://purl.org/dc/dcmitype/StillImage" />
        <dc:title></dc:title>
      </cc:Work>
    </rdf:RDF>
  </metadata>
  <defs
     id="defs37" />
  <style
     id="style2">.st0{fill:#ccc}.st2,.st3{fill:#fff}.st3{stroke:#fff;stroke-width:.5;stroke-miterlimit:10}</style>
  <g
     transform="translate(0,15.0489)"
     id="g4532">
    <g
       id="Layer_1" />
    <g
       transform="translate(-1.5474405,1.3567668)"
       id="g4610">
      <path
         id="path4"
         d="M 111.90934,-8.0165867 V 91.583413 H 21.609341 V -8.0165867 h 90.299999 m 1,-1 H 20.609341 V 92.583413 h 92.299999 z"
         class="st0"
         style="fill:#cccccc" />
      <path
         id="path6"
         d="m 28.609341,-1.1165867 h 20.3 V 21.283413 h -20.3 z m 28,0 h 20.3 V 21.283413 h -20.3 z m 28,0 H 104.90934 V 21.283413 H 84.609341 Z m -56,31.5999997 h 20.3 v 22.4 h -20.3 z m 28,0 h 20.3 v 22.4 h -20.3 z m 28,0 h 20.299999 v 22.4 H 84.609341 Z m -56,31.6 h 20.3 v 22.4 h -20.3 z m 28,0 h 20.3 v 22.4 h -20.3 z"
         class="st0"
         style="fill:#cccccc" />
      <path
         id="path8"
         d="m 35.809341,6.3834133 v 5.8999997 c -0.3,-0.2 -0.7,-0.3 -1.1,-0.3 -1.1,0 -2,0.9 -2,2 0,1.1 0.9,2 2,2 1.1,0 2,-0.9 2,-2 V 8.4834133 l 5.2,-1.5 v 3.4999997 c -0.3,-0.2 -0.7,-0.3 -1.1,-0.3 -1.1,0 -2,0.9 -2,2 0,1.1 0.9,2 2,2 1.1,0 1.9,-0.8 2,-1.8 V 4.2834133 Z m 35.8,-1.5 h -9.3 c -0.5,0 -0.8,0.4 -0.8,0.8 v 9.2999997 c 0,0.5 0.4,0.8 0.8,0.8 h 9.3 c 0.5,0 0.8,-0.4 0.8,-0.8 V 5.6834133 c 0.1,-0.4 -0.3,-0.8 -0.8,-0.8 z m -0.7,4 -4.2,4.0999997 c -0.2,0.2 -0.4,0.2 -0.6,0.2 -0.2,0 -0.4,-0.1 -0.6,-0.2 l -2.5,-2.5 c -0.3,-0.3 -0.3,-0.7999997 0,-1.1999997 0.3,-0.3 0.8,-0.3 1.2,0 l 1.9,1.8999997 3.6,-3.5999997 c 0.3,-0.3 0.9,-0.3 1.2,0 0.3,0.4 0.3,0.9 0,1.3 z"
         class="st2"
         style="fill:#ffffff" />
      <g
         id="radio-button-on"
         transform="translate(20.609341,-9.0165867)">
        <path
           id="path10"
           d="m 74.2,16.1 c -1.7,0 -3,1.3 -3,3 0,1.7 1.3,3 3,3 1.7,0 3,-1.3 3,-3 0,-1.7 -1.3,-3 -3,-3 z m 0,-3 c -3.2,0 -5.9,2.7 -5.9,5.9 0,3.2 2.7,5.9 5.9,5.9 3.2,0 5.9,-2.7 5.9,-5.9 0,-3.2 -2.7,-5.9 -5.9,-5.9 z m 0,10.6 c -2.6,0 -4.7,-2.1 -4.7,-4.7 0,-2.6 2.1,-4.7 4.7,-4.7 2.6,0 4.7,2.1 4.7,4.7 0,2.6 -2.1,4.7 -4.7,4.7 z"
           class="st2"
           style="fill:#ffffff" />
        <path
           id="path12"
           d="m 74.2,22.2 c 1.8,0 3.2,-1.4 3.2,-3.2 0,-1.8 -1.4,-3.2 -3.2,-3.2 -1.8,0 -3.2,1.4 -3.2,3.2 0,1.8 1.4,3.2 3.2,3.2 z m 0,-5.9 c 1.5,0 2.7,1.2 2.7,2.7 0,1.5 -1.2,2.7 -2.7,2.7 -1.5,0 -2.7,-1.2 -2.7,-2.7 0,-1.5 1.2,-2.7 2.7,-2.7 z"
           class="st0"
           style="fill:#cccccc" />
      </g>
      <path
         id="path15"
         d="m 45.809341,41.483413 -3.1,-3.3 c -0.2,-0.2 -0.5,-0.2 -0.7,0 -0.2,0.2 -0.2,0.5 0,0.7 l 2.8,3 -2.8,3 c -0.2,0.2 -0.2,0.5 0,0.7 0.1,0.1 0.2,0.1 0.3,0.1 0.1,0 0.3,-0.1 0.4,-0.2 l 3.1,-3.3 c 0.2,-0.2 0.2,-0.6 0,-0.7 z m -10.4,3.3 -2.8,-3 2.8,-3 c 0.2,-0.2 0.2,-0.5 0,-0.7 -0.2,-0.2 -0.5,-0.2 -0.7,0 l -3.1,3.3 c -0.2,0.2 -0.2,0.5 0,0.7 l 3.1,3.3 c 0.1,0.1 0.2,0.2 0.4,0.2 0.1,0 0.3,0 0.3,-0.1 0.2,-0.2 0.2,-0.5 0,-0.7 z m 4,-8.4 c -0.3,0 -0.5,0.1 -0.6,0.4 l -1.5,9.8 c 0,0.3 0.1,0.5 0.4,0.6 h 0.1 c 0.2,0 0.5,-0.2 0.5,-0.4 l 1.5,-9.8 c 0.1,-0.3 -0.1,-0.5 -0.4,-0.6 z"
         class="st3"
         style="fill:#ffffff;stroke:#ffffff;stroke-width:0.5;stroke-miterlimit:10" />
      <path
         id="path17"
         d="m 68.309341,35.583413 v 3.6 h 3.7 z"
         class="st2"
         style="fill:#ffffff" />
      <path
         id="path19"
         d="m 67.509341,40.783413 c -0.2,0 -0.4,-0.1 -0.5,-0.2 -0.1,-0.1 -0.2,-0.3 -0.2,-0.5 v -4.4 h -4.4 c -0.2,0 -0.4,0.1 -0.5,0.2 -0.2,0.1 -0.3,0.3 -0.3,0.5 v 10.8 c 0,0.2 0.1,0.4 0.2,0.5 0.1,0.1 0.3,0.2 0.5,0.2 h 8.7 c 0.2,0 0.4,-0.1 0.5,-0.2 0.1,-0.1 0.2,-0.3 0.2,-0.5 v -6.4 z m 32.899999,6.8 v -11.6 c 0,-0.2 -0.1,-0.3 -0.3,-0.3 H 89.809341 c -0.2,0 -0.3,0.1 -0.3,0.3 v 11.5 c 0,0.2 0.1,0.3 0.3,0.3 h 10.299999 c 0.2,0.1 0.3,-0.1 0.3,-0.2 z m -3.699999,-9 c 0.9,0 1.6,0.7 1.6,1.6 0,0.9 -0.7,1.6 -1.6,1.6 -0.9,0 -1.6,-0.7 -1.6,-1.6 -0.1,-0.9 0.7,-1.6 1.6,-1.6 z m -5.8,8.4 c 0.1,-1.1 0.7,-3.4 1.5,-4.2 0.8,-0.7 1.4,-0.1 2,0.7 0.5,0.7 0.9,1.3 1.3,1.7 0.6,0.6 1.1,-0.3 1.7,-0.6 0.9,-0.4 1.6,1.8 1.8,2.5 z"
         class="st2"
         style="fill:#ffffff" />
      <g
         id="g23"
         transform="translate(20.609341,-9.0165867)">
        <path
           id="path21"
           d="m 24.3,83.7 c 0.1,-0.4 0.1,-0.9 0.1,-1.3 0,-3.5 -2.8,-6.3 -6.3,-6.3 -0.4,0 -0.7,0 -1.1,0.1 -0.6,-0.4 -1.2,-0.6 -2,-0.6 -2,0 -3.7,1.6 -3.7,3.6 0,0.7 0.2,1.3 0.5,1.8 -0.1,0.4 -0.1,0.8 -0.1,1.3 0,3.5 2.8,6.3 6.3,6.3 0.4,0 0.8,0 1.2,-0.1 0.5,0.3 1.1,0.4 1.7,0.4 2,0 3.7,-1.6 3.7,-3.6 0.1,-0.6 -0.1,-1.1 -0.3,-1.6 z m -3,1.6 c -0.3,0.4 -0.7,0.7 -1.3,1 -0.6,0.2 -1.2,0.3 -2,0.3 -0.9,0 -1.7,-0.2 -2.3,-0.5 -0.4,-0.2 -0.8,-0.5 -1,-0.9 -0.3,-0.4 -0.4,-0.8 -0.4,-1.1 0,-0.2 0.1,-0.4 0.3,-0.6 0.2,-0.2 0.4,-0.2 0.7,-0.2 0.2,0 0.4,0.1 0.6,0.2 0.1,0.1 0.3,0.3 0.4,0.5 0.1,0.3 0.2,0.5 0.4,0.6 0.1,0.2 0.3,0.3 0.5,0.4 0.2,0.1 0.5,0.2 0.9,0.2 0.5,0 1,-0.1 1.3,-0.3 0.3,-0.2 0.5,-0.5 0.5,-0.8 0,-0.2 -0.1,-0.4 -0.2,-0.6 C 19.5,83.3 19.3,83.2 19,83.1 18.7,83 18.3,82.9 17.8,82.8 17.1,82.7 16.6,82.5 16.1,82.3 15.6,82.1 15.3,81.8 15,81.5 c -0.3,-0.3 -0.4,-0.8 -0.4,-1.3 0,-0.5 0.1,-0.9 0.4,-1.3 0.3,-0.4 0.7,-0.7 1.2,-0.8 0.5,-0.2 1.2,-0.3 1.9,-0.3 0.6,0 1.1,0.1 1.5,0.2 0.4,0.1 0.8,0.3 1,0.5 0.3,0.2 0.5,0.4 0.6,0.7 0.1,0.2 0.2,0.5 0.2,0.7 0,0.2 -0.1,0.4 -0.3,0.6 -0.2,0.2 -0.4,0.3 -0.7,0.3 -0.2,0 -0.4,-0.1 -0.5,-0.2 -0.1,-0.1 -0.2,-0.3 -0.4,-0.5 -0.2,-0.3 -0.4,-0.5 -0.6,-0.7 -0.2,-0.2 -0.6,-0.2 -1.1,-0.2 -0.5,0 -0.8,0.1 -1.1,0.3 -0.3,0.2 -0.4,0.4 -0.4,0.6 0,0.1 0,0.3 0.1,0.4 0.1,0.1 0.2,0.2 0.4,0.3 0.2,0.1 0.3,0.1 0.5,0.2 0.2,0 0.5,0.1 0.9,0.2 0.5,0.1 1,0.2 1.4,0.4 0.4,0.1 0.8,0.3 1.1,0.5 0.3,0.2 0.5,0.4 0.7,0.7 0.2,0.3 0.3,0.7 0.3,1.1 0.1,0.6 -0.1,1 -0.4,1.4 z"
           class="st2"
           style="fill:#ffffff" />
      </g>
      <g
         id="g27"
         transform="translate(20.609341,-9.0165867)">
        <path
           id="path25"
           d="m 41,81.7 h 10.1 c 0.1,0 0.2,0 0.3,-0.1 0.1,-0.1 0.1,-0.2 0.1,-0.3 v -0.7 c 0,-0.1 0,-0.2 -0.1,-0.3 -0.1,-0.1 -0.2,-0.1 -0.3,-0.1 H 41 c -0.1,0 -0.2,0 -0.3,0.1 -0.1,0.1 -0.1,0.2 -0.1,0.3 v 0.7 c 0,0.1 0,0.2 0.1,0.3 0.1,0.1 0.2,0.1 0.3,0.1 z m 0,-3 h 7.5 c 0.1,0 0.2,0 0.3,-0.1 0.1,-0.1 0.1,-0.2 0.1,-0.3 v -0.7 c 0,-0.1 0,-0.2 -0.1,-0.3 -0.1,-0.1 -0.2,-0.1 -0.3,-0.1 H 41 c -0.1,0 -0.2,0 -0.3,0.1 -0.1,0.1 -0.1,0.2 -0.1,0.3 v 0.7 c 0,0.1 0,0.2 0.1,0.3 0.1,0 0.2,0.1 0.3,0.1 z m 11.2,7.8 C 52.1,86.4 52,86.4 51.9,86.4 H 41 c -0.1,0 -0.2,0 -0.3,0.1 -0.1,0.1 -0.1,0.2 -0.1,0.3 v 0.7 c 0,0.1 0,0.2 0.1,0.3 0.1,0.1 0.2,0.1 0.3,0.1 h 10.9 c 0.1,0 0.2,0 0.3,-0.1 0.1,-0.1 0.1,-0.2 0.1,-0.3 v -0.7 c 0,-0.1 0,-0.2 -0.1,-0.3 z M 41,84.8 h 8.4 c 0.1,0 0.2,0 0.3,-0.1 0.1,-0.1 0.1,-0.2 0.1,-0.3 v -0.7 c 0,-0.1 0,-0.2 -0.1,-0.3 -0.1,-0.1 -0.2,-0.1 -0.3,-0.1 H 41 c -0.1,0 -0.2,0 -0.3,0.1 -0.1,0.1 -0.1,0.2 -0.1,0.3 v 0.7 c 0,0.1 0,0.2 0.1,0.3 0.1,0.1 0.2,0.1 0.3,0.1 z"
           class="st2"
           style="fill:#ffffff" />
      </g>
      <g
         id="Слой_2"
         transform="translate(20.609341,-9.0165867)">
        <path
           id="path30"
           d="m 68.1,82.5 c 0,-0.9 0.6,-1.5 1.4,-1.5 0.8,0 1.4,0.6 1.4,1.5 0,0.8 -0.5,1.5 -1.4,1.5 -0.9,0 -1.4,-0.6 -1.4,-1.5 z m 4.7,0 c 0,-0.9 0.6,-1.5 1.4,-1.5 0.8,0 1.4,0.6 1.4,1.5 0,0.8 -0.5,1.5 -1.4,1.5 -0.8,0 -1.4,-0.6 -1.4,-1.5 z m 4.8,0 c 0,-0.9 0.6,-1.5 1.4,-1.5 0.8,0 1.4,0.6 1.4,1.5 0,0.8 -0.5,1.5 -1.4,1.5 -0.8,0 -1.4,-0.6 -1.4,-1.5 z"
           class="st0"
           style="fill:#cccccc" />
      </g>
    </g>
  </g>
</svg>
